<svg xmlns="http://www.w3.org/2000/svg" viewBox="0 0 24 24" fill="none" stroke-width="1.5" stroke-linecap="round" stroke-linejoin="round">
  <path stroke="#131314" d="M13.5 4H11C6.757 4 4.636 4 3.318 5.318S2 8.758 2 13s0 6.364 1.318 7.682S6.758 22 11 22s6.364 0 7.682-1.318S20 17.242 20 13v-2.5"/>
  <path stroke="#131314" d="M8.75 11.25 11.5 8.75V17.5"/>
  <path stroke="#d9a53a" d="M19.5 2.938V4.5m0 0v1.563m0-1.563h-1.25m1.25 0h1.25m1.25 0l-1.084-.361a1.67 1.67 0 0 1-1.055-1.055L19.5 2l-.361 1.084a1.67 1.67 0 0 1-1.055 1.055L17 4.5l1.084.361c.498.166.889.557 1.055 1.055L19.5 7l.361-1.084a1.67 1.67 0 0 1 1.055-1.055z"/>
</svg>
